<svg width="17" height="17" viewBox="0 0 17 17" fill="none" xmlns="http://www.w3.org/2000/svg">
<path d="M8.5 0C6.19083 0 5.90254 0.010625 4.99587 0.051C4.09062 0.0935 3.47437 0.235875 2.9325 0.44625C2.37362 0.663 1.89904 0.954125 1.42658 1.42658C0.954125 1.89904 0.662292 2.37292 0.44625 2.9325C0.235875 3.47437 0.0927917 4.09062 0.051 4.99587C0.0085 5.90254 0 6.19083 0 8.5C0 10.8092 0.010625 11.0975 0.051 12.0041C0.0935 12.9087 0.235875 13.5256 0.44625 14.0675C0.663 14.6257 0.954125 15.101 1.42658 15.5734C1.89904 16.0452 2.37292 16.3377 2.9325 16.5538C3.47508 16.7634 4.09133 16.9072 4.99587 16.949C5.90254 16.9915 6.19083 17 8.5 17C10.8092 17 11.0975 16.9894 12.0041 16.949C12.9087 16.9065 13.5256 16.7634 14.0675 16.5538C14.6257 16.337 15.101 16.0452 15.5734 15.5734C16.0452 15.101 16.3377 14.6278 16.5538 14.0675C16.7634 13.5256 16.9072 12.9087 16.949 12.0041C16.9915 11.0975 17 10.8092 17 8.5C17 6.19083 16.9894 5.90254 16.949 4.99587C16.9065 4.09133 16.7634 3.47367 16.5538 2.9325C16.337 2.37362 16.0452 1.89904 15.5734 1.42658C15.101 0.954125 14.6278 0.662292 14.0675 0.44625C13.5256 0.235875 12.9087 0.0927917 12.0041 0.051C11.0975 0.0085 10.8092 0 8.5 0ZM8.5 1.53C10.7688 1.53 11.0394 1.54133 11.9354 1.58029C12.7642 1.61925 13.214 1.75667 13.5129 1.87425C13.911 2.02796 14.1929 2.21212 14.4918 2.50892C14.7886 2.80642 14.9727 3.08904 15.1265 3.48712C15.2426 3.78604 15.3815 4.23583 15.419 5.06458C15.4594 5.96133 15.4686 6.2305 15.4686 8.5C15.4686 10.7695 15.458 11.0394 15.4162 11.9354C15.373 12.7642 15.2348 13.214 15.118 13.5129C14.9593 13.911 14.7787 14.1929 14.4812 14.4918C14.1844 14.7886 13.8975 14.9727 13.5037 15.1265C13.2062 15.2426 12.7493 15.3815 11.9205 15.419C11.0181 15.4594 10.7525 15.4686 8.47875 15.4686C6.20429 15.4686 5.93867 15.458 5.03696 15.4162C4.2075 15.373 3.75062 15.2348 3.45312 15.118C3.05008 14.9593 2.77312 14.7787 2.47633 14.4812C2.17812 14.1844 1.98758 13.8975 1.83883 13.5037C1.72196 13.2062 1.58454 12.7493 1.54133 11.9205C1.50946 11.028 1.49812 10.7525 1.49812 8.48937C1.49812 6.22554 1.50946 5.94929 1.54133 5.04617C1.58454 4.21742 1.72196 3.76125 1.83883 3.46375C1.98758 3.06 2.17812 2.78375 2.47633 2.48554C2.77312 2.18875 3.05008 1.9975 3.45312 1.84946C3.75062 1.73187 4.19758 1.59375 5.02633 1.55125C5.92946 1.51937 6.19508 1.50875 8.46812 1.50875L8.5 1.53ZM8.5 4.13525C6.08812 4.13525 4.13525 6.09025 4.13525 8.5C4.13525 10.9119 6.09025 12.8648 8.5 12.8648C10.9119 12.8648 12.8648 10.9097 12.8648 8.5C12.8648 6.08812 10.9097 4.13525 8.5 4.13525ZM8.5 11.3333C6.93458 11.3333 5.66667 10.0654 5.66667 8.5C5.66667 6.93458 6.93458 5.66667 8.5 5.66667C10.0654 5.66667 11.3333 6.93458 11.3333 8.5C11.3333 10.0654 10.0654 11.3333 8.5 11.3333ZM14.0576 3.96312C14.0576 4.52625 13.6 4.98312 13.0376 4.98312C12.4745 4.98312 12.0176 4.52554 12.0176 3.96312C12.0176 3.40071 12.4752 2.94383 13.0376 2.94383C13.5993 2.94313 14.0576 3.40071 14.0576 3.96312Z" fill="black"/>
</svg>
