<svg width="26" height="17" viewBox="0 0 26 17" fill="none" xmlns="http://www.w3.org/2000/svg">
<path fill-rule="evenodd" clip-rule="evenodd" d="M13 11.3333C12.7956 11.3333 12.5968 11.2671 12.4333 11.1444L1.27944 2.77667C1.10544 2.64545 0.982164 2.45811 0.930524 2.24638C0.878884 2.03466 0.902054 1.81159 0.996105 1.615C1.13676 1.32441 1.32511 1.05945 1.55333 0.831111C2.08417 0.299606 2.80436 0.000661308 3.55555 0H22.4444C23.1956 0.000661308 23.9158 0.299606 24.4467 0.831111C24.6749 1.05945 24.8632 1.32441 25.0039 1.615C25.0979 1.81159 25.1211 2.03466 25.0695 2.24638C25.0178 2.45811 24.8946 2.64545 24.7205 2.77667L13.5667 11.1444C13.4032 11.2671 13.2043 11.3333 13 11.3333ZM22.4444 1.88889H3.55555C3.46794 1.87509 3.37871 1.87509 3.2911 1.88889L13 9.20833L22.7089 1.88889C22.6213 1.87509 22.532 1.87509 22.4444 1.88889ZM23.6655 5.94337C23.8426 5.76625 24.0829 5.66675 24.3333 5.66675C24.5838 5.66675 24.824 5.76625 25.0012 5.94337C25.1783 6.12049 25.2778 6.36071 25.2778 6.61119V14.1667C25.2771 14.9179 24.9782 15.6381 24.4467 16.169C23.9158 16.7005 23.1956 16.9994 22.4445 17.0001H3.55556C2.80437 16.9994 2.08418 16.7005 1.55334 16.169C1.02184 15.6381 0.72289 14.9179 0.722229 14.1667V6.61119C0.722229 6.36071 0.821733 6.12049 0.99885 5.94337C1.17597 5.76625 1.41619 5.66675 1.66667 5.66675C1.91716 5.66675 2.15738 5.76625 2.3345 5.94337C2.51161 6.12049 2.61112 6.36071 2.61112 6.61119V14.1667C2.61112 14.4172 2.71062 14.6575 2.88774 14.8346C3.06486 15.0117 3.30508 15.1112 3.55556 15.1112H22.4445C22.6949 15.1112 22.9352 15.0117 23.1123 14.8346C23.2894 14.6575 23.3889 14.4172 23.3889 14.1667V6.61119C23.3889 6.36071 23.4884 6.12049 23.6655 5.94337Z" fill="black"/>
</svg>
