<?xml version="1.0" standalone="no"?>
<!DOCTYPE svg PUBLIC "-//W3C//DTD SVG 20010904//EN"
 "http://www.w3.org/TR/2001/REC-SVG-20010904/DTD/svg10.dtd">
<svg version="1.0" xmlns="http://www.w3.org/2000/svg"
 width="260.000000pt" height="260.000000pt" viewBox="0 0 260.000000 260.000000"
 preserveAspectRatio="xMidYMid meet">

<g transform="translate(0.000000,260.000000) scale(0.100000,-0.100000)"
fill="#000000" stroke="none">
<path d="M1225 2276 c3 -11 11 -50 17 -87 21 -122 -4 -185 -134 -334 -91 -105
-113 -151 -112 -240 0 -38 6 -83 14 -100 l13 -30 11 60 c18 92 42 130 149 243
120 126 141 167 141 272 0 57 -5 86 -21 120 -24 49 -89 128 -78 96z"/>
<path d="M1410 1961 c0 -67 -29 -114 -140 -227 -120 -121 -149 -169 -157 -264
-9 -93 32 -181 99 -216 27 -14 30 -14 25 -1 -49 128 -24 213 103 354 94 104
134 184 128 255 -7 85 -58 172 -58 99z"/>
<path d="M563 1144 c-11 -28 5 -187 27 -262 40 -143 125 -280 232 -375 l63
-56 -176 -1 c-97 0 -179 -3 -182 -6 -13 -14 16 -46 58 -64 62 -27 213 -58 341
-70 140 -13 448 -13 589 0 230 22 405 76 405 126 0 12 -30 14 -180 14 l-179 0
92 92 92 92 67 -3 c51 -2 77 2 115 19 53 23 107 70 129 112 47 90 -24 205
-133 215 l-48 5 0 87 0 86 -653 3 c-590 2 -653 1 -659 -14z m250 -194 c10
-110 40 -219 82 -299 19 -36 33 -66 31 -68 -2 -2 -33 28 -68 66 -92 99 -168
264 -168 362 0 26 2 26 58 25 l57 -1 8 -85z m1173 -61 c52 -49 20 -135 -67
-180 -39 -19 -122 -30 -135 -17 -4 4 4 29 16 55 12 26 31 73 41 103 11 29 25
58 32 62 21 15 88 1 113 -23z"/>
</g>
</svg>
