<svg width="17" height="17" viewBox="0 0 17 17" fill="none" xmlns="http://www.w3.org/2000/svg">
<path fill-rule="evenodd" clip-rule="evenodd" d="M8.53548 0C10.7998 0.000923265 12.925 0.878196 14.5231 2.47048C16.1212 4.06271 17.0008 6.17917 17 8.43009C16.998 13.0748 13.2005 16.8539 8.53554 16.8539H8.53211C7.11544 16.8534 5.72345 16.4997 4.48714 15.8286L0 17L1.20085 12.6348C0.460104 11.3573 0.0703332 9.9081 0.070986 8.42335C0.072807 3.77875 3.87001 0 8.53548 0ZM8.53266 15.4312H8.53551C12.4132 15.4312 15.5692 12.2902 15.5708 8.42951C15.5716 6.55867 14.8405 4.7995 13.5122 3.47606C12.1839 2.15261 10.4175 1.42333 8.53836 1.42275C4.65777 1.42275 1.50167 4.56342 1.50016 8.42383C1.49961 9.7468 1.87155 11.0353 2.57577 12.15L2.74307 12.415L2.03231 14.9987L4.69505 14.3036L4.95191 14.4553C6.0321 15.0932 7.2703 15.4308 8.53266 15.4312ZM11.2491 9.00556C11.4295 9.07638 12.3973 9.58922 12.5941 9.69534C12.6325 9.71606 12.6684 9.73477 12.7017 9.7521C12.839 9.82357 12.9317 9.87184 12.9713 9.94299C13.0206 10.0314 13.0206 10.4559 12.8565 10.9512C12.6925 11.4464 11.9061 11.8985 11.528 11.9593C11.1888 12.0139 10.7597 12.0367 10.2882 11.8753C10.0024 11.7776 9.63573 11.6472 9.16613 11.4287C7.3208 10.5704 6.07373 8.64376 5.83818 8.27984C5.82169 8.25437 5.81016 8.23656 5.80372 8.2273L5.80217 8.22507C5.69813 8.07556 5 7.07234 5 6.03403C5 5.0575 5.44536 4.54558 5.65037 4.30992C5.66443 4.29377 5.67735 4.27891 5.68893 4.26529C5.86931 4.05308 6.08259 4 6.21379 4C6.34499 4 6.47638 4.00127 6.59101 4.00744C6.60518 4.00821 6.61992 4.00812 6.63515 4.00803C6.74986 4.00734 6.89284 4.00647 7.03392 4.37138C7.08792 4.5112 7.16683 4.71814 7.25014 4.93663C7.41982 5.38162 7.60776 5.87451 7.64076 5.94568C7.69001 6.05177 7.72278 6.1756 7.65717 6.31713C7.64731 6.33838 7.63819 6.35843 7.62947 6.37759C7.58021 6.48592 7.54396 6.56564 7.46035 6.6708C7.42757 6.71205 7.39369 6.75648 7.35981 6.80092C7.29197 6.88989 7.22413 6.97887 7.16508 7.04225C7.06653 7.14799 6.96395 7.26272 7.07875 7.47493C7.19361 7.68725 7.58861 8.3815 8.17378 8.94374C8.80271 9.54802 9.34935 9.80343 9.62646 9.93291C9.68059 9.95821 9.72444 9.97869 9.7566 9.99604C9.95339 10.1023 10.0682 10.0845 10.183 9.94303C10.2979 9.8015 10.6751 9.32389 10.8063 9.11168C10.9375 8.89944 11.0687 8.93481 11.2491 9.00556Z" fill="black"/>
</svg>
