<svg width="25" height="18" viewBox="0 0 25 18" fill="none" xmlns="http://www.w3.org/2000/svg">
<path fill-rule="evenodd" clip-rule="evenodd" d="M21.0838 1.72029C17.6841 1.47518 12.5345 1.47519 12.4823 1.47519V1.49107H12.4755C12.4256 1.49107 7.28061 1.49334 3.87633 1.73618L3.72655 1.7498L3.71644 1.75078C3.27636 1.79363 2.77877 1.84209 2.30129 2.33533C2.07888 2.55774 1.81561 3.36115 1.7271 3.93988C1.58397 5.19906 1.50822 6.46498 1.50015 7.73224V9.58416C1.50787 10.8514 1.58363 12.1174 1.7271 13.3765C1.81334 13.9484 2.07207 14.7496 2.29902 14.9765C2.72115 15.4146 3.30895 15.4849 3.8264 15.5462C3.95804 15.5598 4.06924 15.5757 4.18499 15.5938C6.12996 15.7595 12.2236 15.8208 12.4846 15.8208C12.7116 15.8208 17.7431 15.7981 21.0838 15.5711L21.2381 15.5553L21.2417 15.5549C21.6834 15.5119 22.1835 15.4632 22.6611 14.9697C22.8835 14.7564 23.1491 13.9416 23.233 13.3811C23.3762 12.1211 23.452 10.8545 23.46 9.58643V7.71635C23.4523 6.44908 23.3765 5.18314 23.233 3.92399C23.1445 3.34981 22.8858 2.5464 22.6588 2.31944C22.1777 1.82242 21.6875 1.77476 21.2336 1.73391L21.0838 1.72029ZM3.74924 0.265533C7.24202 0.0158862 12.4823 0.0158865 12.4823 0.0158865V0C12.4823 0 17.7272 0 21.2268 0.251916C21.272 0.257016 21.3224 0.261697 21.3773 0.2668C21.9085 0.316194 22.8634 0.404985 23.7232 1.29362C24.4722 2.04256 24.715 3.74243 24.715 3.74243C24.8705 5.06762 24.9538 6.40028 24.9647 7.73451V9.60459C24.9523 10.9389 24.8675 12.2716 24.7105 13.5967C24.7105 13.5967 24.4654 15.2965 23.7187 16.0432C22.8655 16.9292 21.9141 17.0201 21.3787 17.0713C21.3216 17.0767 21.2692 17.0817 21.2222 17.0872C17.7272 17.3436 12.4823 17.3436 12.4823 17.3436C12.4823 17.3436 5.99152 17.2846 3.99435 17.0963C3.89874 17.0783 3.78272 17.0643 3.65132 17.0485C3.01854 16.9721 2.02884 16.8528 1.24143 16.0409C0.492485 15.2943 0.249647 13.5944 0.249647 13.5944C0.0941395 12.2692 0.0108008 10.9366 0 9.60232V7.73224C0.0151686 6.4031 0.102294 5.07576 0.260994 3.75605C0.260994 3.75605 0.506102 2.05618 1.25277 1.30724C2.10681 0.422479 3.05511 0.332449 3.59064 0.281606C3.64855 0.276109 3.70163 0.271069 3.74924 0.265533ZM10.6708 4.65836C10.2058 4.42587 9.65363 4.45071 9.2114 4.72402C8.76918 4.99733 8.5 5.48013 8.5 6V11C8.5 11.5199 8.76918 12.0027 9.2114 12.276C9.65363 12.5493 10.2058 12.5741 10.6708 12.3416L15.6708 9.84164C16.179 9.58755 16.5 9.06816 16.5 8.5C16.5 7.93184 16.179 7.41245 15.6708 7.15836L10.6708 4.65836ZM11.5 10.25L10 11V9.32295V7.67705V6L11.5 6.75L13.3229 7.66147L15 8.5L13.3229 9.33853L11.5 10.25Z" fill="black"/>
</svg>
